{"title":"Black Butterflies 2011 DVD9rip English Klam","uid":6959139,"size":1301775766,"categoryP":"video","categoryS":"movies","magnet":"?xt=urn:btih:d06f481aeea1f3cc7b9c9f169f3435477824f45c&amp;dn=Black+Butterflies+2011+DVD9rip+English+Klam&amp;tr=udp%3A%2F%2Ftracker.openbittorrent.com%3A80&amp;tr=udp%3A%2F%2Fopen.demonii.com%3A1337&amp;tr=udp%3A%2F%2Ftracker.coppersurfer.tk%3A6969&amp;tr=udp%3A%2F%2Fexodus.desync.com%3A6969","seeders":0,"leechers":1,"uploader":"Klambake","files":-1,"time":1326706403,"description":"With: Carice van Houten, Rutger Hauer and Liam Cunningham\n\nDichteres Ingrid Jonker is al van kleins af aan op zoek naar een liefde en een thuis. Haar vader, die deel uitmaakt van de Apartheidsregering als minister van censuur, heeft haar afgewezen. Veel mannen voelen zich echter aangetrokken tot de prachtige en gepassioneerde Ingrid. Op een bepaald moment heeft Ingrid een relatie met twee mannen tegelijk: de beroemde en bekende Zuid-Afrikaanse schrijvers Jack Cope en AndrÃƒÂ© Brink. Ingrid hoopt dat ze op deze manier de rust kan vinden waar ze al jaren naar op zoek is.\n\nShe searched for a home, she searched for love. Confronted by Apartheid and a father who was Minister of censorship... \n\n------------------------ Dutch Friends ------------------------\n---------------------------------------------------------------\n- Bezoek ook eens mijn vrienden op: &lt;a href=&quot; http://www.Film-Test.nl&quot; rel=&quot;nofollow&quot; target=&quot;_NEW&quot;&gt; http://www.Film-Test.nl&lt;/a&gt; --\n----- voor mijn Nederlandse Sync. ondertitels ---- en meer ----\n------- http://www.Film-Test.nl ---- voor Films en meer -------\n---------------------------------------------------------------\n\nGeneral:\n\nComplete name                    : Black Butterflies\\Black Butterflies.avi\nFormat                           : AVI\nFormat/Info                      : Audio Video Interleave\nFile size                        : 1.21 GiB\nDuration                         : 1h 35mn\nOverall bit rate                 : 1 819 Kbps\n\nVideo:\n\nFormat                           : MPEG-4 Visual\nFormat profile                   : Simple@L3\nFormat settings, BVOP            : No\nFormat settings, QPel            : No\nFormat settings, GMC             : No warppoints\nFormat settings, Matrix          : Default (H.263)\nCodec ID                         : XVID\nCodec ID/Hint                    : XviD\nDuration                         : 1h 35mn\nBit rate                         : 1 360 Kbps\nWidth                            : 720 pixels\nHeight                           : 304 pixels\nDisplay aspect ratio             : 2.35:1\nFrame rate                       : 25.000 fps\nColor space                      : YUV\nChroma subsampling               : 4:2:0\nBit depth                        : 8 bits\nScan type                        : Progressive\nCompression mode                 : Lossy\nBits/(Pixel*Frame)               : 0.249\nStream size                      : 928 MiB (75%)\nWriting library                  : XviD 1.1.2 (UTC 2006-11-01)\n\nAudio:\n\nFormat                           : AC-3\nFormat/Info                      : Audio Coding 3\nMode extension                   : CM (complete main)\nCodec ID                         : 2000\nDuration                         : 1h 35mn\nBit rate mode                    : Constant\nBit rate                         : 448 Kbps\nChannel(s)                       : 6 channels\nChannel positions                : Front: L C R, Side: L R, LFE\nSampling rate                    : 48.0 KHz\nBit depth                        : 16 bits\nCompression mode                 : Lossy\nStream size                      : 306 MiB (25%)\nAlignment                        : Aligned on interleaves\nInterleave, duration             : 32 ms (0.80 video frame)\nInterleave, preload duration     : 64 ms\n\n","torrent":{"xt":"urn:btih:d06f481aeea1f3cc7b9c9f169f3435477824f45c","amp;dn":"Black+Butterflies+2011+DVD9rip+English+Klam","amp;tr":["udp%3A%2F%2Ftracker.openbittorrent.com%3A80","udp%3A%2F%2Fopen.demonii.com%3A1337","udp%3A%2F%2Ftracker.coppersurfer.tk%3A6969","udp%3A%2F%2Fexodus.desync.com%3A6969"],"infoHash":"d06f481aeea1f3cc7b9c9f169f3435477824f45c","infoHashBuffer":{"type":"Buffer","data":[208,111,72,26,238,161,243,204,123,156,159,22,159,52,53,71,120,36,244,92]},"announce":[],"urlList":[]}}